[b]General
Complete name                    : ZENDA MARATHI MOVIE DVD RIP BY~~loveislifeforlovers@gmail.com~~NIKHIL

NOTE:- THOUGH THE MOVIE FLASHES CENSORED BUT IN REALILTIY THE MOVIE IS...

AS THE NAME IT SELF SUGGEST THE QUALITY FOR THE MOVIE SO PLS DO NOT REQUEST FOR THE SCREEN SHOTS OR SAMPLES OF THE MOVIE..

IF THE QUALITY AND THE STATEMENT DIFFERS ..THEN U CAN REQUEST THE MODERATOR FOR REMOVAL OF THIS TORRENTS FROM THETEAM IMMEDIATELY.

[img]http://fenilandbollywood.com/wp-content/uploads/2010/01/zenda.jpg[/img]

Format                           : DivX
Format/Info                      : Hack of AVI
File size                        : 693 MiB
Duration                         : 2h 1mn
Overall bit rate                 : 798 Kbps

Video
ID                               : 0
Format                           : MPEG-4 Visual
Format settings, BVOP            : Yes
Format settings, QPel            : No
Format settings, GMC             : No warppoints
Format settings, Matrix          : Default (H.263)
Muxing mode                      : Packed bitstream
Codec ID                         : DX50
Codec ID/Hint                    : DivX 5
Duration                         : 2h 1mn
Bit rate                         : 661 Kbps
Width                            : 720 pixels
Height                           : 576 pixels
Display aspect ratio             : 4:3
Frame rate                       : 25.000 fps
Standard                         : PAL
Resolution                       : 8 bits
Colorimetry                      : 4:2:0
Scan type                        : Progressive
Bits/(Pixel*Frame)               : 0.064
Stream size                      : 573 MiB (83%)
Title                            : Video 
Writing library                  : DivX 2151

Audio
ID                               : 1
Format                           : MPEG Audio
Format version                   : Version 1
Format profile                   : Layer 3
Codec ID                         : 55
Codec ID/Hint                    : MP3
Duration                         : 2h 1mn
Bit rate mode                    : Constant
Bit rate                         : 128 Kbps
Channel(s)                       : 2 channels
Sampling rate                    : 48.0 KHz
Stream size                      : 111 MiB (16%)
Alignment                        : Split accross interleaves
Interleave, duration             : 40 ms (1.00 video frame)
Interleave, preload duration     : 500 ms
Title                            : Audio 
[/b]